<?xml version="1.0" encoding="UTF-8" standalone="no"?>
<svg xmlns="http://www.w3.org/2000/svg" viewBox="0 0 300 150" width="300" height="150">
  <path fill="#FF7900" d="M150 75c0 31.49-25.64 57.14-57.14 57.14-31.49 0-57.15-25.65-57.15-57.14 0-31.5 25.66-57.14 57.15-57.14 31.5 0 57.14 25.64 57.14 57.14m92.86 0h-28.57c0-31.49-25.64-57.14-57.14-57.14V0c57.15 0 85.71 33.93 85.71 75"/>
  <path fill="#FF7900" d="M200 42.86h-14.29c-7.85 0-14.28 6.42-14.28 14.28v35.72c0 7.85 6.43 14.28 14.28 14.28H200c7.86 0 14.29-6.43 14.29-14.28V57.14c0-7.86-6.43-14.28-14.29-14.28m0 50c0 2.86-2.14 5-5 5h-4.29c-2.85 0-5-2.14-5-5V57.14c0-2.85 2.15-5 5-5h4.29c2.86 0 5 2.15 5 5v35.72z"/>
  <path fill="#FF7900" d="M214.29 57.14h14.28v42.86h-14.28z"/>
  <path fill="#FF7900" d="M228.57 42.86h-14.28v7.14h14.28z"/>
  <path fill="#FF7900" d="M264.29 42.86h-14.29c-7.85 0-14.28 6.42-14.28 14.28v35.72c0 7.85 6.43 14.28 14.28 14.28h14.29c7.85 0 14.28-6.43 14.28-14.28V57.14c0-7.86-6.43-14.28-14.28-14.28m0 50c0 2.86-2.15 5-5 5h-4.29c-2.86 0-5-2.14-5-5V57.14c0-2.85 2.14-5 5-5h4.29c2.85 0 5 2.15 5 5v35.72z"/>
</svg>
